<svg width="223" height="120"><defs id="SvgjsDefs1388"><linearGradient id="SvgjsLinearGradient1392"><stop id="SvgjsStop1393" stop-color="#25235e" offset="0"></stop><stop id="SvgjsStop1394" stop-color="#ae4792" offset="1"></stop></linearGradient></defs><g id="SvgjsG1389" featurekey="root" fill="#ffffff" transform="matrix(1,0,0,1,0,0)"></g><g id="SvgjsG1390" featurekey="container1" fill="url(#SvgjsLinearGradient1392)" transform="matrix(1,0,0,1,0,0)"><rect xmlns="http://www.w3.org/2000/svg" width="223" height="120"></rect></g><g id="SvgjsG1391" featurekey="text1" fill="#ffffff" transform="matrix(3.7974689962238113,0,0,3.7974689962238113,17.037977007753373,-2.2025425927318665)"><path d="M4.42 21.86 q0.82 0 1.16 -0.16 t0.34 -0.62 q0 -0.36 -0.44 -0.63 t-1.34 -0.61 q-0.7 -0.26 -1.27 -0.54 t-0.97 -0.67 t-0.62 -0.93 t-0.22 -1.3 q0 -1.48 1.1 -2.34 t3.02 -0.86 q0.96 0 1.84 0.17 t1.4 0.37 l-0.52 2.32 q-0.52 -0.18 -1.13 -0.32 t-1.37 -0.14 q-1.4 0 -1.4 0.78 q0 0.18 0.06 0.32 t0.24 0.27 t0.49 0.28 t0.79 0.33 q0.98 0.36 1.62 0.71 t1.01 0.76 t0.52 0.91 t0.15 1.16 q0 1.56 -1.17 2.36 t-3.31 0.8 q-1.4 0 -2.33 -0.24 t-1.29 -0.4 l0.5 -2.42 q0.76 0.3 1.56 0.47 t1.58 0.17 z M11.000000000000002 10.86 l2.98 -0.48 l0 3.1 l3.58 0 l0 2.48 l-3.58 0 l0 3.7 q0 0.94 0.33 1.5 t1.33 0.56 q0.48 0 0.99 -0.09 t0.93 -0.25 l0.42 2.32 q-0.54 0.22 -1.2 0.38 t-1.62 0.16 q-1.22 0 -2.02 -0.33 t-1.28 -0.92 t-0.67 -1.43 t-0.19 -1.86 l0 -8.84 z M29.82 18.72 q0 1.24 -0.36 2.27 t-1.04 1.76 t-1.63 1.13 t-2.13 0.4 q-1.16 0 -2.11 -0.4 t-1.63 -1.13 t-1.06 -1.76 t-0.38 -2.27 t0.39 -2.26 t1.08 -1.74 t1.64 -1.12 t2.07 -0.4 q1.14 0 2.09 0.4 t1.63 1.12 t1.06 1.74 t0.38 2.26 z M26.78 18.72 q0 -1.38 -0.55 -2.17 t-1.57 -0.79 t-1.58 0.79 t-0.56 2.17 t0.56 2.19 t1.58 0.81 t1.57 -0.81 t0.55 -2.19 z M41.96 18.72 q0 1.24 -0.36 2.27 t-1.04 1.76 t-1.63 1.13 t-2.13 0.4 q-1.16 0 -2.11 -0.4 t-1.63 -1.13 t-1.06 -1.76 t-0.38 -2.27 t0.39 -2.26 t1.08 -1.74 t1.64 -1.12 t2.07 -0.4 q1.14 0 2.09 0.4 t1.63 1.12 t1.06 1.74 t0.38 2.26 z M38.92 18.72 q0 -1.38 -0.55 -2.17 t-1.57 -0.79 t-1.58 0.79 t-0.56 2.17 t0.56 2.19 t1.58 0.81 t1.57 -0.81 t0.55 -2.19 z M48.46 24.2 q-1.3 -0.02 -2.11 -0.28 t-1.28 -0.73 t-0.64 -1.14 t-0.17 -1.51 l0 -11.58 l2.98 -0.48 l0 11.46 q0 0.4 0.06 0.72 t0.23 0.54 t0.49 0.36 t0.86 0.18 z"></path></g></svg>